<?xml version="1.0" encoding="utf-8"?>
<!-- Generator: Adobe Illustrator 23.0.6, SVG Export Plug-In . SVG Version: 6.00 Build 0)  -->
<svg version="1.1" id="Layer_1" xmlns="http://www.w3.org/2000/svg" xmlns:xlink="http://www.w3.org/1999/xlink" x="0px" y="0px"
	 viewBox="0 0 10 10" style="enable-background:new 0 0 10 10;" xml:space="preserve">
<style type="text/css">
	.st0{fill:#599BFF;}
	.st1{fill:#3E8BFF;}
	.st2{fill:#217AFF;}
	.st3{fill:#97C0FF;}
	.st4{fill:#5C9DFF;}
	.st5{fill:#A3C8FF;}
</style>
<g>
	<g>
		<g>
			<polygon class="st0" points="1.68,8.72 1.22,8.22 1.16,7.51 2.81,7.16 2.27,8.77 			"/>
			<polygon class="st1" points="1.26,8.21 1.19,7.53 1.23,7.52 1.56,7.71 2.01,8.28 2.26,8.78 1.67,8.67 			"/>
			<polygon class="st1" points="1.25,8.2 1.19,7.53 1.23,7.52 1.55,7.7 1.85,8.1 1.48,8.45 			"/>
			<path class="st2" d="M2.06,8.3c0,0,0.72-1.09,0.72-1.09L2.74,7.27c0,0-0.61,1.14-0.61,1.14l0.12,0.36L2.24,8.8L2.08,8.41
				c0,0-0.43,0.3-0.42,0.29l0.38-0.35L1.55,7.8L1.23,8.2l0.27-0.45L1.19,7.49l0.36,0.22L2.7,7.2l0.06-0.01L1.59,7.76
				C1.59,7.76,2.04,8.28,2.06,8.3"/>
			<polygon class="st1" points="2.19,7.67 2.22,7.68 2.77,7.21 2.77,7.17 			"/>
			<polygon class="st3" points="2.6,7.21 1.97,7.35 1.9,7.39 1.97,7.4 			"/>
			<polygon class="st3" points="2.73,7.33 2.49,7.95 2.44,8.01 2.44,7.94 			"/>
			<polygon class="st1" points="2.65,7.23 2.16,7.56 2.18,7.57 2.71,7.2 			"/>
			<polygon class="st1" points="2.75,7.27 2.35,7.72 2.33,7.71 2.77,7.22 			"/>
			<polygon class="st3" points="2.24,8.74 2.11,8.37 2.28,8.07 2.29,8.08 			"/>
			<polygon class="st4" points="1.39,7.49 1.83,7.5 1.88,7.54 2.7,7.2 			"/>
			<polygon class="st1" points="2.05,8.28 2.23,8 1.9,7.63 			"/>
			<polygon class="st0" points="1.94,7.59 2.6,7.42 2.26,7.96 			"/>
			<polygon class="st5" points="1.39,7.49 1.83,7.5 1.9,7.55 2.7,7.2 1.91,7.51 1.83,7.47 			"/>
			<polygon class="st0" points="1.55,7.81 1.25,8.18 1.56,7.89 2.04,8.37 			"/>
			<polyline class="st3" points="2.23,8.74 2.21,8.37 2.11,8.37 2.24,8.76 			"/>
			<polygon class="st1" points="2.21,8.37 2.29,8.06 2.11,8.37 			"/>
			<polyline class="st5" points="1.23,7.53 1.52,7.77 1.25,8.17 1.46,7.8 1.22,7.53 			"/>
			<polygon class="st1" points="2.31,8.84 2.24,8.75 1.7,8.67 1.64,8.71 			"/>
			<polygon class="st4" points="1.7,8.67 2.08,8.41 2.22,8.76 			"/>
			<polygon class="st0" points="1.71,8.16 1.55,7.91 1.39,8.05 1.3,8.17 			"/>
			<polyline class="st0" points="1.69,8.67 1.71,8.16 2.04,8.37 1.69,8.67 			"/>
			<path class="st2" d="M1.14,7.48L1.14,7.48l0.02,0.25l0,0l0.04,0.49l0.43,0.48l0.39,0.07l0.28,0.06l0.55-1.72L1.14,7.48z
				 M1.26,8.18L1.2,7.57l0-0.03l0.01,0l0.62,0.01l0.46,0.53c0-0.01-0.05,0.6-0.06,0.68L1.69,8.68l0,0L1.26,8.18z M2.32,8.54
				c0.01-0.22,0.01-0.49,0.02-0.49L1.86,7.5L1.41,7.49l1.37-0.31L2.32,8.54z"/>
			<polygon class="st1" points="1.16,7.73 1.16,7.73 1.16,7.74 			"/>
			<polygon class="st1" points="1.69,8.67 1.67,8.42 1.69,8.47 			"/>
			<polygon class="st1" points="1.69,8.68 1.74,8.49 1.75,8.54 			"/>
			<polygon class="st1" points="1.69,8.67 1.55,8.4 1.6,8.46 			"/>
			<polygon class="st5" points="1.89,7.6 1.59,7.76 1.6,7.76 2.06,8.3 1.66,7.76 1.67,7.76 			"/>
			<path class="st5" d="M2.22,8.76C2.21,8.76,2.08,8.41,2.08,8.41L1.69,8.67l0.35-0.19L2.22,8.76z"/>
		</g>
		<g>
			<polygon class="st0" points="8.32,1.28 8.78,1.78 8.84,2.49 7.19,2.84 7.73,1.23 			"/>
			<polygon class="st1" points="8.74,1.79 8.81,2.47 8.77,2.48 8.44,2.29 7.99,1.72 7.74,1.22 8.33,1.33 			"/>
			<polygon class="st1" points="8.75,1.8 8.81,2.47 8.77,2.48 8.45,2.3 8.15,1.9 8.52,1.55 			"/>
			<path class="st2" d="M7.94,1.7c0,0-0.72,1.09-0.72,1.09l0.04-0.06c0,0,0.61-1.14,0.61-1.14L7.75,1.23L7.76,1.2l0.16,0.38
				c0,0,0.43-0.3,0.42-0.29L7.96,1.64L8.45,2.2l0.31-0.4L8.49,2.25l0.32,0.26L8.45,2.28L7.3,2.8L7.24,2.81l1.18-0.57
				C8.41,2.24,7.96,1.72,7.94,1.7"/>
			<polygon class="st1" points="7.81,2.33 7.78,2.32 7.23,2.79 7.23,2.83 			"/>
			<polygon class="st3" points="7.4,2.79 8.03,2.65 8.1,2.61 8.03,2.6 			"/>
			<polygon class="st3" points="7.27,2.67 7.51,2.05 7.56,1.99 7.56,2.06 			"/>
			<polygon class="st1" points="7.35,2.77 7.84,2.44 7.82,2.43 7.29,2.8 			"/>
			<polygon class="st1" points="7.25,2.73 7.65,2.28 7.67,2.29 7.23,2.78 			"/>
			<polygon class="st3" points="7.76,1.26 7.89,1.63 7.72,1.93 7.71,1.92 			"/>
			<polygon class="st4" points="8.61,2.51 8.17,2.5 8.12,2.46 7.3,2.8 			"/>
			<polygon class="st1" points="7.95,1.72 7.77,2 8.1,2.37 			"/>
			<polygon class="st0" points="8.06,2.41 7.4,2.58 7.74,2.04 			"/>
			<polygon class="st5" points="8.61,2.51 8.17,2.5 8.1,2.45 7.3,2.8 8.09,2.49 8.17,2.53 			"/>
			<polygon class="st0" points="8.45,2.19 8.75,1.82 8.44,2.11 7.96,1.63 			"/>
			<polyline class="st3" points="7.77,1.26 7.79,1.63 7.89,1.63 7.76,1.24 			"/>
			<polygon class="st1" points="7.79,1.63 7.71,1.94 7.89,1.63 			"/>
			<polyline class="st5" points="8.77,2.47 8.48,2.23 8.75,1.83 8.54,2.2 8.78,2.47 			"/>
			<polygon class="st1" points="7.69,1.16 7.76,1.25 8.3,1.33 8.36,1.29 			"/>
			<polygon class="st4" points="8.3,1.33 7.92,1.59 7.78,1.24 			"/>
			<polygon class="st0" points="8.29,1.84 8.45,2.09 8.61,1.95 8.7,1.83 			"/>
			<polyline class="st0" points="8.31,1.33 8.29,1.84 7.96,1.63 8.31,1.33 			"/>
			<path class="st2" d="M8.86,2.52L8.86,2.52L8.83,2.27l0,0L8.79,1.77L8.37,1.29L7.98,1.22L7.69,1.16L7.15,2.87L8.86,2.52z
				 M8.74,1.82L8.8,2.43l0,0.03l-0.01,0L8.17,2.45L7.71,1.92c0,0.01,0.05-0.6,0.06-0.68l0.55,0.08l0,0L8.74,1.82z M7.68,1.46
				C7.68,1.68,7.67,1.95,7.67,1.95L8.14,2.5l0.45,0.01L7.22,2.82L7.68,1.46z"/>
			<polygon class="st1" points="8.84,2.27 8.84,2.27 8.84,2.26 			"/>
			<polygon class="st1" points="8.31,1.33 8.33,1.58 8.31,1.53 			"/>
			<polygon class="st1" points="8.31,1.32 8.26,1.51 8.25,1.46 			"/>
			<polygon class="st1" points="8.31,1.33 8.45,1.6 8.4,1.54 			"/>
			<polygon class="st5" points="8.11,2.4 8.41,2.24 8.4,2.24 7.94,1.7 8.34,2.24 8.33,2.24 			"/>
			<path class="st5" d="M7.78,1.24c0.01,0.01,0.14,0.35,0.14,0.35l0.39-0.26L7.96,1.51L7.78,1.24z"/>
		</g>
	</g>
	<g>
		<g>
			<polygon class="st0" points="5.29,9.97 4.6,9.95 4.05,9.49 4.98,8.08 5.74,9.6 			"/>
			<polygon class="st1" points="4.63,9.92 4.1,9.48 4.12,9.45 4.48,9.35 5.21,9.43 5.73,9.61 5.24,9.95 			"/>
			<polygon class="st1" points="4.61,9.91 4.1,9.48 4.12,9.45 4.47,9.35 4.96,9.42 4.95,9.93 			"/>
			<path class="st2" d="M5.26,9.41c0,0-0.26-1.28-0.26-1.28L5.01,8.2c0,0,0.38,1.24,0.38,1.24l0.34,0.17l0,0.03L5.35,9.48
				c0,0-0.09,0.52-0.09,0.51l0.02-0.52L4.54,9.42L4.6,9.93L4.48,9.42L4.07,9.46l0.41-0.1l0.44-1.18l0.04-0.05L4.54,9.37
				C4.54,9.37,5.22,9.41,5.26,9.41"/>
			<polygon class="st1" points="4.9,8.87 4.93,8.86 4.98,8.14 4.96,8.11 			"/>
			<polygon class="st3" points="4.86,8.26 4.52,8.81 4.5,8.88 4.56,8.84 			"/>
			<polygon class="st3" points="5.04,8.25 5.31,8.86 5.32,8.94 5.27,8.89 			"/>
			<polygon class="st1" points="4.92,8.24 4.81,8.82 4.83,8.81 4.94,8.18 			"/>
			<polygon class="st1" points="5.01,8.2 5.05,8.8 5.03,8.81 4.99,8.15 			"/>
			<polygon class="st3" points="5.69,9.59 5.34,9.43 5.25,9.09 5.26,9.09 			"/>
			<polygon class="st4" points="4.2,9.31 4.53,9.01 4.59,9 4.92,8.18 			"/>
			<polygon class="st1" points="5.23,9.41 5.16,9.08 4.66,9.05 			"/>
			<polygon class="st0" points="4.67,9 5.01,8.41 5.16,9.03 			"/>
			<polygon class="st5" points="4.2,9.31 4.53,9.01 4.61,9 4.92,8.18 4.59,8.96 4.51,8.98 			"/>
			<polygon class="st0" points="4.55,9.42 4.6,9.9 4.61,9.48 5.29,9.48 			"/>
			<polyline class="st3" points="5.69,9.6 5.41,9.36 5.34,9.43 5.71,9.6 			"/>
			<polygon class="st1" points="5.41,9.36 5.25,9.08 5.34,9.43 			"/>
			<polyline class="st5" points="4.12,9.45 4.49,9.42 4.59,9.89 4.48,9.48 4.12,9.46 			"/>
			<polygon class="st1" points="5.81,9.62 5.7,9.6 5.26,9.93 5.25,10 			"/>
			<polygon class="st4" points="5.26,9.93 5.35,9.48 5.69,9.63 			"/>
			<polygon class="st0" points="4.91,9.56 4.62,9.5 4.6,9.71 4.63,9.86 			"/>
			<polyline class="st0" points="5.26,9.94 4.91,9.56 5.29,9.48 5.26,9.93 			"/>
			<path class="st2" d="M4.03,9.48L4.03,9.48l0.19,0.16l0,0L4.6,9.97L5.24,10l0.32-0.23l0.24-0.16l-0.83-1.6L4.03,9.48z M4.61,9.9
				L4.13,9.5L4.11,9.48l0.01-0.01l0.45-0.43l0.7,0.05c-0.01,0,0.39,0.46,0.44,0.52L5.26,9.94l0,0L4.61,9.9z M5.6,9.4
				C5.45,9.24,5.27,9.05,5.27,9.04L4.55,8.99L4.22,9.3l0.75-1.18L5.6,9.4z"/>
			<polygon class="st1" points="4.22,9.65 4.21,9.65 4.22,9.65 			"/>
			<polygon class="st1" points="5.26,9.94 5.06,9.77 5.12,9.8 			"/>
			<polygon class="st1" points="5.26,9.94 5.17,9.77 5.21,9.8 			"/>
			<polygon class="st1" points="5.26,9.94 4.97,9.85 5.04,9.85 			"/>
			<polygon class="st5" points="4.64,9.04 4.54,9.37 4.55,9.36 5.26,9.41 4.59,9.31 4.6,9.31 			"/>
			<path class="st5" d="M5.69,9.63c-0.01,0-0.34-0.15-0.34-0.15L5.26,9.94l0.11-0.38L5.69,9.63z"/>
		</g>
		<g>
			<polygon class="st0" points="4.71,0.03 5.4,0.05 5.95,0.51 5.02,1.92 4.26,0.4 			"/>
			<polygon class="st1" points="5.37,0.08 5.9,0.52 5.88,0.55 5.52,0.65 4.79,0.57 4.27,0.39 4.76,0.05 			"/>
			<polygon class="st1" points="5.39,0.09 5.9,0.52 5.88,0.55 5.53,0.65 5.04,0.58 5.05,0.07 			"/>
			<path class="st2" d="M4.74,0.59c0,0,0.26,1.28,0.26,1.28L4.99,1.8c0,0-0.38-1.24-0.38-1.24L4.27,0.39l0-0.03l0.38,0.16
				c0,0,0.09-0.52,0.09-0.51L4.72,0.53l0.74,0.05L5.4,0.07l0.12,0.51l0.41-0.04l-0.41,0.1L5.07,1.82L5.04,1.87l0.43-1.24
				C5.46,0.63,4.78,0.59,4.74,0.59"/>
			<polygon class="st1" points="5.1,1.13 5.07,1.14 5.02,1.86 5.04,1.89 			"/>
			<polygon class="st3" points="5.14,1.74 5.48,1.19 5.5,1.12 5.44,1.16 			"/>
			<polygon class="st3" points="4.96,1.75 4.69,1.14 4.68,1.06 4.73,1.11 			"/>
			<polygon class="st1" points="5.08,1.76 5.19,1.18 5.17,1.19 5.06,1.82 			"/>
			<polygon class="st1" points="4.99,1.8 4.95,1.2 4.97,1.19 5.01,1.85 			"/>
			<polygon class="st3" points="4.31,0.41 4.66,0.57 4.75,0.91 4.74,0.91 			"/>
			<polygon class="st4" points="5.8,0.69 5.47,0.99 5.41,1 5.08,1.82 			"/>
			<polygon class="st1" points="4.77,0.59 4.84,0.92 5.34,0.95 			"/>
			<polygon class="st0" points="5.33,1 4.99,1.59 4.84,0.97 			"/>
			<polygon class="st5" points="5.8,0.69 5.47,0.99 5.39,1 5.08,1.82 5.41,1.04 5.49,1.02 			"/>
			<polygon class="st0" points="5.45,0.58 5.4,0.1 5.39,0.52 4.71,0.52 			"/>
			<polyline class="st3" points="4.31,0.4 4.59,0.64 4.66,0.57 4.29,0.4 			"/>
			<polygon class="st1" points="4.59,0.64 4.75,0.92 4.66,0.57 			"/>
			<polyline class="st5" points="5.88,0.55 5.51,0.58 5.41,0.11 5.52,0.52 5.88,0.54 			"/>
			<polygon class="st1" points="4.19,0.38 4.3,0.4 4.74,0.07 4.75,0 			"/>
			<polygon class="st4" points="4.74,0.07 4.65,0.52 4.31,0.37 			"/>
			<polygon class="st0" points="5.09,0.44 5.38,0.5 5.4,0.29 5.37,0.14 			"/>
			<polyline class="st0" points="4.74,0.06 5.09,0.44 4.71,0.52 4.74,0.07 			"/>
			<path class="st2" d="M5.97,0.52L5.97,0.52L5.78,0.36l0,0L5.4,0.03L4.76,0L4.43,0.22L4.19,0.38l0.83,1.6L5.97,0.52z M5.39,0.1
				L5.87,0.5l0.02,0.02L5.89,0.53L5.44,0.96l-0.7-0.05c0.01,0-0.39-0.46-0.44-0.52l0.44-0.33l0,0L5.39,0.1z M4.4,0.6
				c0.15,0.16,0.33,0.35,0.33,0.36l0.72,0.05L5.78,0.7L5.03,1.89L4.4,0.6z"/>
			<polygon class="st1" points="5.78,0.35 5.79,0.35 5.78,0.35 			"/>
			<polygon class="st1" points="4.74,0.06 4.94,0.23 4.88,0.2 			"/>
			<polygon class="st1" points="4.74,0.06 4.83,0.23 4.79,0.2 			"/>
			<polygon class="st1" points="4.74,0.06 5.03,0.15 4.96,0.15 			"/>
			<polygon class="st5" points="5.36,0.96 5.46,0.63 5.45,0.64 4.74,0.59 5.41,0.69 5.4,0.69 			"/>
			<path class="st5" d="M4.31,0.37c0.01,0,0.34,0.15,0.34,0.15l0.09-0.46L4.63,0.44L4.31,0.37z"/>
		</g>
	</g>
	<g>
		<g>
			<polygon class="st0" points="9.97,4.65 9.96,5.33 9.5,5.89 8.08,4.98 9.59,4.2 			"/>
			<polygon class="st1" points="9.92,5.31 9.5,5.84 9.46,5.82 9.36,5.46 9.43,4.73 9.6,4.21 9.95,4.69 			"/>
			<polygon class="st1" points="9.92,5.33 9.5,5.84 9.46,5.82 9.36,5.47 9.42,4.98 9.93,4.98 			"/>
			<path class="st2" d="M9.41,4.68c0,0-1.28,0.27-1.28,0.27L8.2,4.95c0,0,1.23-0.4,1.23-0.39L9.6,4.21l0.03,0L9.47,4.59
				c0,0,0.52,0.09,0.51,0.08L9.47,4.66L9.43,5.4l0.5-0.07L9.42,5.46l0.04,0.41l-0.1-0.41L8.18,5.03L8.13,4.99l1.24,0.41
				C9.37,5.41,9.4,4.72,9.41,4.68"/>
			<polygon class="st1" points="8.87,5.05 8.86,5.02 8.14,4.98 8.11,5 			"/>
			<polygon class="st3" points="8.26,5.09 8.81,5.43 8.89,5.44 8.85,5.39 			"/>
			<polygon class="st3" points="8.25,4.91 8.86,4.64 8.93,4.63 8.88,4.68 			"/>
			<polygon class="st1" points="8.24,5.04 8.82,5.14 8.81,5.12 8.18,5.02 			"/>
			<polygon class="st1" points="8.2,4.94 8.8,4.9 8.8,4.92 8.15,4.97 			"/>
			<polygon class="st3" points="9.58,4.25 9.42,4.6 9.09,4.7 9.09,4.68 			"/>
			<polygon class="st4" points="9.33,5.74 9.02,5.42 9,5.36 8.18,5.03 			"/>
			<polygon class="st1" points="9.4,4.71 9.07,4.78 9.06,5.28 			"/>
			<polygon class="st0" points="9,5.28 8.41,4.94 9.03,4.79 			"/>
			<polygon class="st5" points="9.33,5.74 9.02,5.42 9,5.34 8.18,5.03 8.97,5.36 8.99,5.44 			"/>
			<polygon class="st0" points="9.43,5.39 9.91,5.33 9.49,5.33 9.47,4.65 			"/>
			<polyline class="st3" points="9.59,4.25 9.35,4.54 9.42,4.6 9.59,4.23 			"/>
			<polygon class="st1" points="9.35,4.53 9.07,4.7 9.42,4.6 			"/>
			<polyline class="st5" points="9.46,5.82 9.43,5.45 9.9,5.35 9.48,5.46 9.47,5.82 			"/>
			<polygon class="st1" points="9.61,4.13 9.59,4.24 9.92,4.67 9.99,4.69 			"/>
			<polygon class="st4" points="9.93,4.67 9.47,4.59 9.62,4.25 			"/>
			<polygon class="st0" points="9.56,5.03 9.51,5.32 9.71,5.34 9.86,5.31 			"/>
			<polyline class="st0" points="9.93,4.67 9.56,5.03 9.47,4.65 9.93,4.68 			"/>
			<path class="st2" d="M9.49,5.91L9.49,5.91l0.16-0.2l0,0l0.32-0.38L10,4.69L9.77,4.37L9.61,4.13L8.02,4.97L9.49,5.91z M9.9,5.33
				L9.51,5.81L9.49,5.83L9.48,5.83L9.05,5.38l0.04-0.7c0,0.01,0.45-0.4,0.51-0.45l0.34,0.44l0,0L9.9,5.33z M9.39,4.34
				C9.23,4.49,9.04,4.68,9.04,4.68L9,5.4l0.31,0.32L8.11,4.99L9.39,4.34z"/>
			<polygon class="st1" points="9.66,5.72 9.66,5.73 9.66,5.72 			"/>
			<polygon class="st1" points="9.93,4.67 9.77,4.87 9.79,4.82 			"/>
			<polygon class="st1" points="9.94,4.67 9.77,4.77 9.8,4.73 			"/>
			<polygon class="st1" points="9.93,4.67 9.85,4.97 9.85,4.89 			"/>
			<polygon class="st5" points="9.04,5.3 9.37,5.41 9.36,5.4 9.41,4.68 9.32,5.35 9.31,5.35 			"/>
			<path class="st5" d="M9.62,4.25c0,0.01-0.14,0.34-0.14,0.34l0.46,0.08L9.55,4.57L9.62,4.25z"/>
		</g>
		<g>
			<polygon class="st0" points="0.03,5.35 0.04,4.67 0.5,4.11 1.92,5.02 0.41,5.8 			"/>
			<polygon class="st1" points="0.08,4.69 0.5,4.16 0.54,4.18 0.64,4.54 0.57,5.27 0.4,5.79 0.05,5.31 			"/>
			<polygon class="st1" points="0.08,4.67 0.5,4.16 0.54,4.18 0.64,4.53 0.58,5.02 0.07,5.02 			"/>
			<path class="st2" d="M0.59,5.32c0,0,1.28-0.27,1.28-0.27L1.8,5.05c0,0-1.23,0.4-1.23,0.39L0.4,5.79l-0.03,0l0.15-0.38
				c0,0-0.52-0.09-0.51-0.08l0.52,0.02L0.57,4.6l-0.5,0.07l0.51-0.13L0.53,4.13l0.1,0.41l1.19,0.43l0.05,0.04L0.63,4.59
				C0.63,4.59,0.6,5.28,0.59,5.32"/>
			<polygon class="st1" points="1.13,4.95 1.14,4.98 1.86,5.02 1.89,5 			"/>
			<polygon class="st3" points="1.74,4.91 1.19,4.57 1.11,4.56 1.15,4.61 			"/>
			<polygon class="st3" points="1.75,5.09 1.14,5.36 1.07,5.37 1.12,5.32 			"/>
			<polygon class="st1" points="1.76,4.96 1.18,4.86 1.19,4.88 1.82,4.98 			"/>
			<polygon class="st1" points="1.8,5.06 1.2,5.1 1.2,5.08 1.85,5.03 			"/>
			<polygon class="st3" points="0.42,5.75 0.58,5.4 0.91,5.3 0.91,5.32 			"/>
			<polygon class="st4" points="0.67,4.26 0.98,4.58 1,4.64 1.82,4.97 			"/>
			<polygon class="st1" points="0.6,5.29 0.93,5.22 0.94,4.72 			"/>
			<polygon class="st0" points="1,4.72 1.59,5.06 0.97,5.21 			"/>
			<polygon class="st5" points="0.67,4.26 0.98,4.58 1,4.66 1.82,4.97 1.03,4.64 1.01,4.56 			"/>
			<polygon class="st0" points="0.57,4.61 0.09,4.67 0.51,4.67 0.53,5.35 			"/>
			<polyline class="st3" points="0.41,5.75 0.65,5.46 0.58,5.4 0.41,5.77 			"/>
			<polygon class="st1" points="0.65,5.47 0.93,5.3 0.58,5.4 			"/>
			<polyline class="st5" points="0.54,4.18 0.57,4.55 0.1,4.65 0.52,4.54 0.53,4.18 			"/>
			<polygon class="st1" points="0.39,5.87 0.41,5.76 0.08,5.33 0.01,5.31 			"/>
			<polygon class="st4" points="0.07,5.33 0.53,5.41 0.38,5.75 			"/>
			<polygon class="st0" points="0.44,4.97 0.49,4.68 0.29,4.66 0.14,4.69 			"/>
			<polyline class="st0" points="0.07,5.33 0.44,4.97 0.53,5.35 0.07,5.32 			"/>
			<path class="st2" d="M0.51,4.09L0.51,4.09l-0.16,0.2l0,0L0.03,4.67L0,5.31l0.23,0.32l0.16,0.24l1.59-0.85L0.51,4.09z M0.1,4.67
				l0.39-0.49l0.02-0.02l0.01,0.01l0.44,0.44l-0.04,0.7c0-0.01-0.45,0.4-0.51,0.45L0.07,5.33l0,0L0.1,4.67z M0.61,5.66
				c0.16-0.15,0.35-0.34,0.35-0.34L1,4.6L0.69,4.28l1.19,0.73L0.61,5.66z"/>
			<polygon class="st1" points="0.34,4.28 0.34,4.27 0.34,4.28 			"/>
			<polygon class="st1" points="0.07,5.33 0.23,5.13 0.21,5.18 			"/>
			<polygon class="st1" points="0.06,5.33 0.23,5.23 0.2,5.27 			"/>
			<polygon class="st1" points="0.07,5.33 0.15,5.03 0.15,5.11 			"/>
			<polygon class="st5" points="0.96,4.7 0.63,4.59 0.64,4.6 0.59,5.32 0.68,4.65 0.69,4.65 			"/>
			<path class="st5" d="M0.38,5.75c0-0.01,0.14-0.34,0.14-0.34L0.07,5.33l0.38,0.11L0.38,5.75z"/>
		</g>
	</g>
	<g>
		<g>
			<polygon class="st0" points="8.75,8.3 8.25,8.76 7.54,8.83 7.2,7.17 8.8,7.71 			"/>
			<polygon class="st1" points="8.25,8.72 7.57,8.79 7.56,8.75 7.75,8.43 8.32,7.97 8.81,7.72 8.7,8.31 			"/>
			<polygon class="st1" points="8.23,8.73 7.57,8.79 7.55,8.75 7.74,8.43 8.13,8.13 8.49,8.51 			"/>
			<path class="st2" d="M8.33,7.92c0,0-1.09-0.72-1.09-0.72l0.06,0.04c0,0,1.14,0.61,1.14,0.61l0.36-0.12l0.02,0.02L8.45,7.9
				c0,0,0.3,0.43,0.29,0.42L8.39,7.94L7.84,8.43l0.4,0.31L7.79,8.47L7.53,8.79l0.22-0.36L7.23,7.28L7.22,7.22L7.79,8.4
				C7.79,8.4,8.31,7.94,8.33,7.92"/>
			<polygon class="st1" points="7.7,7.79 7.72,7.76 7.24,7.22 7.2,7.21 			"/>
			<polygon class="st3" points="7.24,7.38 7.38,8.01 7.43,8.08 7.44,8.01 			"/>
			<polygon class="st3" points="7.36,7.25 7.98,7.49 8.04,7.54 7.97,7.54 			"/>
			<polygon class="st1" points="7.26,7.33 7.6,7.82 7.6,7.8 7.24,7.27 			"/>
			<polygon class="st1" points="7.31,7.24 7.76,7.63 7.74,7.65 7.25,7.22 			"/>
			<polygon class="st3" points="8.77,7.74 8.4,7.87 8.1,7.7 8.11,7.69 			"/>
			<polygon class="st4" points="7.52,8.6 7.54,8.15 7.57,8.1 7.23,7.28 			"/>
			<polygon class="st1" points="8.31,7.93 8.03,7.75 7.66,8.08 			"/>
			<polygon class="st0" points="7.63,8.04 7.45,7.39 8,7.72 			"/>
			<polygon class="st5" points="7.52,8.6 7.54,8.15 7.58,8.08 7.23,7.28 7.54,8.07 7.5,8.15 			"/>
			<polygon class="st0" points="7.84,8.43 8.22,8.73 7.93,8.42 8.4,7.95 			"/>
			<polyline class="st3" points="8.78,7.75 8.4,7.77 8.4,7.87 8.79,7.74 			"/>
			<polygon class="st1" points="8.41,7.77 8.09,7.69 8.4,7.87 			"/>
			<polyline class="st5" points="7.56,8.75 7.8,8.47 8.2,8.73 7.83,8.52 7.56,8.76 			"/>
			<polygon class="st1" points="8.87,7.67 8.78,7.74 8.7,8.28 8.74,8.34 			"/>
			<polygon class="st4" points="8.71,8.28 8.45,7.9 8.79,7.76 			"/>
			<polygon class="st0" points="8.19,8.27 7.94,8.43 8.08,8.59 8.2,8.68 			"/>
			<polyline class="st0" points="8.71,8.29 8.19,8.27 8.4,7.95 8.7,8.29 			"/>
			<path class="st2" d="M7.51,8.84L7.51,8.84l0.25-0.02l0,0l0.49-0.04l0.48-0.43l0.07-0.39l0.06-0.28L7.16,7.13L7.51,8.84z
				 M8.22,8.72L7.6,8.78l-0.03,0l0-0.01l0.01-0.62l0.53-0.46c-0.01,0,0.6,0.05,0.68,0.06L8.71,8.29l0,0L8.22,8.72z M8.57,7.67
				C8.35,7.66,8.08,7.65,8.08,7.65L7.53,8.12L7.52,8.57L7.21,7.21L8.57,7.67z"/>
			<polygon class="st1" points="7.76,8.82 7.76,8.82 7.77,8.83 			"/>
			<polygon class="st1" points="8.71,8.29 8.45,8.31 8.51,8.29 			"/>
			<polygon class="st1" points="8.72,8.29 8.53,8.24 8.57,8.23 			"/>
			<polygon class="st1" points="8.71,8.29 8.44,8.43 8.49,8.38 			"/>
			<polygon class="st5" points="7.63,8.09 7.79,8.4 7.79,8.38 8.33,7.92 7.79,8.32 7.79,8.31 			"/>
			<path class="st5" d="M8.79,7.76C8.79,7.77,8.45,7.9,8.45,7.9l0.26,0.39L8.52,7.94L8.79,7.76z"/>
		</g>
		<g>
			<polygon class="st0" points="1.26,1.7 1.76,1.23 2.48,1.17 2.82,2.82 1.21,2.28 			"/>
			<polygon class="st1" points="1.77,1.27 2.45,1.21 2.46,1.25 2.27,1.57 1.7,2.03 1.2,2.27 1.31,1.68 			"/>
			<polygon class="st1" points="1.78,1.26 2.45,1.21 2.46,1.25 2.28,1.56 1.89,1.86 1.53,1.49 			"/>
			<path class="st2" d="M1.68,2.07c0,0,1.09,0.72,1.09,0.72L2.71,2.76c0,0-1.14-0.61-1.14-0.61L1.21,2.27L1.19,2.25l0.38-0.16
				c0,0-0.3-0.43-0.29-0.42l0.35,0.38l0.56-0.49l-0.4-0.31l0.45,0.27L2.49,1.2L2.26,1.56l0.52,1.15l0.01,0.06L2.22,1.6
				C2.22,1.6,1.71,2.06,1.68,2.07"/>
			<polygon class="st1" points="2.32,2.21 2.3,2.24 2.77,2.78 2.81,2.79 			"/>
			<polygon class="st3" points="2.77,2.61 2.63,1.98 2.59,1.92 2.58,1.98 			"/>
			<polygon class="st3" points="2.65,2.74 2.03,2.5 1.97,2.45 2.04,2.46 			"/>
			<polygon class="st1" points="2.75,2.66 2.42,2.18 2.41,2.2 2.78,2.72 			"/>
			<polygon class="st1" points="2.71,2.76 2.26,2.36 2.27,2.34 2.76,2.78 			"/>
			<polygon class="st3" points="1.25,2.26 1.61,2.13 1.91,2.3 1.9,2.31 			"/>
			<polygon class="st4" points="2.49,1.4 2.48,1.84 2.44,1.9 2.79,2.71 			"/>
			<polygon class="st1" points="1.7,2.06 1.98,2.24 2.35,1.91 			"/>
			<polygon class="st0" points="2.39,1.95 2.56,2.61 2.02,2.27 			"/>
			<polygon class="st5" points="2.49,1.4 2.48,1.84 2.43,1.91 2.79,2.71 2.47,1.92 2.51,1.85 			"/>
			<polygon class="st0" points="2.18,1.57 1.8,1.27 2.09,1.57 1.61,2.05 			"/>
			<polyline class="st3" points="1.24,2.25 1.62,2.22 1.61,2.13 1.23,2.26 			"/>
			<polygon class="st1" points="1.61,2.22 1.92,2.31 1.61,2.13 			"/>
			<polyline class="st5" points="2.45,1.24 2.21,1.53 1.81,1.26 2.19,1.48 2.45,1.23 			"/>
			<polygon class="st1" points="1.14,2.32 1.23,2.25 1.31,1.71 1.28,1.66 			"/>
			<polygon class="st4" points="1.31,1.71 1.57,2.09 1.22,2.23 			"/>
			<polygon class="st0" points="1.82,1.72 2.07,1.56 1.94,1.4 1.81,1.32 			"/>
			<polyline class="st0" points="1.31,1.71 1.82,1.72 1.61,2.05 1.31,1.71 			"/>
			<path class="st2" d="M2.5,1.16L2.5,1.16L2.25,1.18l0,0L1.75,1.22L1.27,1.65L1.2,2.04L1.14,2.32l1.71,0.55L2.5,1.16z M1.8,1.27
				l0.62-0.06l0.03,0l0,0.01L2.43,1.85L1.9,2.31c0.01,0-0.6-0.05-0.68-0.06l0.08-0.55l0,0L1.8,1.27z M1.44,2.33
				c0.22,0.01,0.49,0.01,0.49,0.02l0.55-0.48l0.01-0.45L2.8,2.79L1.44,2.33z"/>
			<polygon class="st1" points="2.25,1.17 2.25,1.17 2.24,1.17 			"/>
			<polygon class="st1" points="1.31,1.71 1.56,1.69 1.51,1.7 			"/>
			<polygon class="st1" points="1.3,1.7 1.49,1.76 1.44,1.76 			"/>
			<polygon class="st1" points="1.31,1.71 1.58,1.57 1.52,1.61 			"/>
			<polygon class="st5" points="2.38,1.91 2.22,1.6 2.22,1.61 1.68,2.07 2.22,1.68 2.22,1.68 			"/>
			<path class="st5" d="M1.22,2.23c0.01-0.01,0.35-0.14,0.35-0.14L1.31,1.71l0.19,0.34L1.22,2.23z"/>
		</g>
	</g>
</g>
</svg>
